PathFileType	4	(X/Y/Z)	Patient4_TMGait_0pt3_02_left_16.trc.trc
DataRate	CameraRate	NumFrames	NumMarkers	Units	OrigDataRate	OrigDataStartFrame	OrigNumFrames
50.359712230216	50.359712230216	6	33	mm	50.359712230216	53	       141
Frame#	Time	Sacral			L.Shoulder			Chest			R.Shoulder			Neck			R.ASIS			L.ASIS			R.Thigh.Superior			R.Thigh.Lateral			R.Thigh.Inferior			R.Patella			L.Thigh.Superior			L.Thigh.Lateral			L.Thigh.Inferior			L.Patella			L.Shank.Superior			L.Shank.Lateral			L.Shank.Inferior			R.Shank.Superior			R.Shank.Lateral			R.Shank.Inferior			R.Heel			R.Midfoot.Superior			R.Midfoot.Lateral			R.Toe			L.Heel			L.Midfoot.Lateral			L.Midfoot.Superior			L.Toe			L.Elbow			L.Wrist			R.Elbow			R.Wrist			
		X1	Y1	Z1	X2	Y2	Z2	X3	Y3	Z3	X4	Y4	Z4	X5	Y5	Z5	X6	Y6	Z6	X7	Y7	Z7	X8	Y8	Z8	X9	Y9	Z9	X10	Y10	Z10	X11	Y11	Z11	X12	Y12	Z12	X13	Y13	Z13	X14	Y14	Z14	X15	Y15	Z15	X16	Y16	Z16	X17	Y17	Z17	X18	Y18	Z18	X19	Y19	Z19	X20	Y20	Z20	X21	Y21	Z21	X22	Y22	Z22	X23	Y23	Z23	X24	Y24	Z24	X25	Y25	Z25	X26	Y26	Z26	X27	Y27	Z27	X28	Y28	Z28	X29	Y29	Z29	X30	Y30	Z30	X31	Y31	Z31	X32	Y32	Z32	X33	Y33	Z33	

53	31.922571428571	708.203723104247	1002.630656346722	436.495002213756	917.359380675692	1419.671551107457	251.290033505136	1017.674117426375	1344.658750345978	411.422087193212	942.437734150434	1425.609258899051	585.087635725379	902.987112898094	1482.507561253093	409.348012809468	935.704961833332	925.767685563275	551.545590969153	922.763754126929	948.801776582529	279.669109014483	981.796998518503	728.720244545100	525.578309486393	909.803922628174	618.714624252067	593.931500029598	988.219304379908	561.420380026127	514.820183347101	981.572300934765	451.631434502726	537.838758090147	986.817210804856	748.929931349143	325.564078778343	917.834008326251	620.380082060112	270.900282495121	1007.282495265637	556.531676270837	345.350490865011	1015.013568677497	481.647785134683	355.955925510511	978.695228378069	407.094476827234	350.710058993118	882.690030442142	299.376527208804	297.663080677299	914.807424350269	187.273354984774	374.719633249068	900.114191975034	388.366702692582	548.333073400514	777.597467955374	357.527269774271	610.878015471429	757.635862982914	247.838371910451	564.964853228300	552.988432877386	194.339126201454	539.664707578419	718.028535756769	130.989370500719	582.936096011008	609.703865870812	136.403578434779	615.500265168594	779.181152152906	30.425742349520	613.143581456267	770.753063333073	39.414212902936	410.508495097189	848.689560200229	36.522546824164	333.979045431201	932.106223408045	95.695425109421	365.620262768567	1060.755771933273	40.133267513217	342.303259204123	914.646369167213	1075.979884477751	109.856332158605	1037.015219059013	844.888905446857	116.831597448460	992.518859426821	1078.313530501975	702.035654137803	1199.899499283543	923.982139263144	703.977248812037	
54	31.942428571429	706.775524546569	1000.137042480109	432.703232406838	917.133149857802	1418.868801464376	250.439466280666	1015.286644584445	1343.548631394042	411.716490466587	937.331134308637	1423.061954966398	584.861581978662	900.744054468300	1481.114217070149	408.680711612933	934.188317515338	924.856246749273	549.242848426055	922.789515430540	947.604575548820	277.185123802309	986.839945265451	731.125737228507	521.611171520177	919.726134571235	619.194043314949	590.659537254663	999.244325668998	564.061551097040	510.504075582075	995.298212205365	452.856795804865	534.104284110377	987.151186493853	747.314519307878	323.619808530876	918.312541104700	618.570592032755	269.744296017763	1007.370004005249	554.919699294046	345.055397914665	1014.912249589258	479.770989975006	356.055142003838	977.609165770102	405.143459971580	350.804284747312	880.433054246550	298.560494873415	297.524034755087	910.468304478619	186.248031171397	374.883367675516	912.258665163099	389.844177842613	545.207309316608	788.464457472027	362.870694844129	607.465085873018	765.711203700164	253.226039161576	562.779079059930	560.105570808989	207.827676671598	536.718927516572	722.161691765178	136.239755637233	581.922414741606	613.481058933646	147.583169661117	613.463027526687	777.424303491193	30.357708419236	613.496246011357	764.790637065892	39.425308731252	410.453222890027	842.740625647596	36.504845293793	333.943474941312	926.164938781789	95.589932609351	365.732763102646	1054.806273456837	40.063618983895	342.276082089269	927.615242823423	1076.606463538941	106.229415579065	1061.209693311659	852.110721139283	113.578853494294	971.724234442347	1072.271428207680	699.995767262736	1163.347202871382	899.172834894431	707.050752254667	
55	31.962285714286	705.362037492668	997.627256031618	429.150301950469	916.790117606198	1418.142595009264	249.901883210833	1012.758987856255	1342.451836194835	412.271130669216	932.006405531469	1420.404939977548	584.865616476949	898.372784947464	1479.717867526200	408.320441432362	932.644142936423	924.019427002936	547.188560628951	922.815289932437	946.330901630829	274.956854631541	991.434039601251	733.748591215660	517.885236550548	929.178671703636	620.101453572007	587.628433766104	1009.583676549936	567.166774570717	506.346754643358	1008.481779365101	454.720447514737	530.413621985557	987.491911923250	745.681798685536	321.999870249718	918.809480216762	616.727276925541	268.824446540818	1007.470962404506	553.270010959825	344.978879878019	1014.821538665006	477.864231853839	356.384553714575	976.525153310154	403.171515976890	351.074201001683	878.181755847983	297.751569372219	297.515783214559	906.138605865632	185.214194215557	375.105544112961	924.156765640745	391.693599299300	542.144681891835	799.236808013593	367.893140546501	604.000493873003	774.372808040125	258.206685571038	560.478683349151	568.141508653079	219.129471897799	533.378263770624	727.655114182689	141.217998213013	580.721031853172	618.665958853432	157.349318014525	611.156241825235	778.043158272370	30.746836585537	613.925786023482	758.830660005350	39.440120314022	410.405130468506	836.799202909688	36.490574738445	333.914848978629	920.233771106690	95.478529453770	365.860487815138	1048.860676611658	39.986266237670	342.249298510199	940.082888668414	1077.940026736639	102.990469397473	1085.566551968802	861.219358747784	111.007666349051	950.722955713842	1066.929782982108	697.724476894148	1124.630760475589	876.435071270973	709.393725839072	
56	31.982142857143	703.950150599543	995.259147815423	425.809355870655	916.427809493687	1417.578339104353	249.664718896386	1010.162686987503	1341.456797387401	413.089666647853	926.541869861424	1417.795772410122	585.069332366508	895.945254209448	1478.425255878786	408.246157490338	931.026718718752	923.338401899392	545.418955186499	922.847405242095	945.089951245567	273.019635370039	995.453055264051	736.595218786016	514.515710918208	937.923100295853	621.458952371722	584.931137933777	1019.050206419532	570.712663897136	502.517603662521	1020.898981231706	457.238806321133	526.953492967105	987.721159453571	744.068708426745	320.660661685046	919.119559088414	614.939114350747	268.086074832864	1007.343208448276	551.622624518140	345.040295717975	1014.467588651440	475.995288159318	356.860091819233	975.213905877145	401.261246792478	351.445013276756	875.766875810981	296.968922690747	297.581153446549	901.731680151839	184.213182400356	375.352572175885	935.655617956265	393.894660092082	539.295280660768	809.776615754153	372.365106794059	600.638038116509	783.641770991474	262.505428745913	558.184154884732	577.068735588728	227.507654647448	529.850969251112	734.778861984587	145.621305581803	579.430154223945	625.461234704252	165.041755264029	608.728479323267	781.705316898020	31.580726463670	614.407183508196	752.864657378116	39.448034972764	410.362852046919	830.858207874105	36.473941658805	333.886745281806	914.301841071578	95.362891638203	365.990333660468	1042.913502384736	39.908755561701	342.223628517856	952.069129066618	1080.036257846876	100.101884397773	1109.826280354797	872.261707752619	109.115404408451	929.683980331830	1062.488682655827	695.303700180248	1084.306339737312	856.295276931012	710.957017668413	
57	32.002000000000	702.527306184090	993.197572026341	422.650378959706	916.148551439443	1417.266149151486	249.717046558862	1007.570711847548	1340.659193494552	414.178408409767	921.020143576123	1415.406025513550	585.443699832895	893.537428613511	1477.350643172758	408.433350163887	929.287412603124	922.896967503049	543.965283505655	922.891946405727	944.009706201569	271.402611501504	998.795246759990	739.673742968498	511.602721162203	945.745420599411	623.273502161179	582.645869574906	1027.491222862962	574.665182269871	499.173814649293	1032.357890202283	460.421433748269	523.898604810895	987.712920791707	742.523867409701	319.560614184756	919.033433496091	613.307062505136	267.472550507360	1006.737152660565	550.027969417661	345.161392165500	1013.570467026015	474.242318349684	357.394509151045	973.442287928603	399.505154769287	351.839432963126	873.017341576514	296.238584177117	297.661112542270	897.160196865359	183.291841407952	375.589953838330	946.645955909475	396.419400109344	536.800404966528	820.015032213671	376.058483648530	597.545087515060	793.586636846290	265.870789166247	556.027957493133	586.948769665873	232.376324050113	526.384743077233	743.813896210232	149.148665803562	578.164060347725	634.103266662661	170.097084250259	606.355415523978	788.991854073683	32.766344031919	614.905532152685	746.884784132773	39.441504153873	410.324423587913	824.910806168385	36.450865669469	333.853603059399	908.358973136844	95.246689204697	366.108587385512	1036.959383957532	39.838202021721	342.199965761307	963.623315777128	1082.943410933292	97.533562484776	1133.718929617890	885.215186667597	107.901331042879	908.742757806180	1059.149900409827	692.824582870813	1043.007743143015	839.217183191983	711.721352851861	
58	32.021857142857	701.087288175231	991.598298399885	419.645193848862	916.049282523589	1417.292786665921	250.050868056494	1005.051027524864	1340.153332127310	415.544886486176	915.521480769474	1413.405379782785	585.963135703381	891.222288095395	1476.604743439344	408.856210834666	927.380611478482	922.775358927275	542.850312126605	922.954427546874	943.220167625575	270.127722276325	1001.384098651373	742.988712957074	509.221805648178	952.464002393589	625.533821550723	580.826407113477	1034.784886311473	578.976847060686	496.443113932562	1042.696886724749	464.264475588426	521.394565434767	987.349234331085	741.102186454520	318.665650583588	918.360406260046	611.934011144686	266.931831687395	1005.423366863442	548.541613208119	345.273806261362	1011.874953579693	472.685881141255	357.905707564527	970.999001592854	397.996469385309	352.184973451395	869.778371648371	295.591701490560	297.700811587998	892.345662913212	182.498196811980	375.785232824672	957.052212790609	399.234477802948	534.779489229723	829.943038615119	378.772655625816	594.884772989091	804.306379780076	268.106272070448	554.143085488022	597.933310500630	233.362688270035	523.236109589975	755.012666690071	151.536945101168	577.038257029245	644.838840170158	172.113815446652	604.217870476953	800.314668599122	34.150875867065	615.383358613224	740.885354314977	39.417628202581	410.287062252739	818.951362105269	36.419335706633	333.811453292667	902.397301785597	95.135121121261	366.202026297838	1030.993887377577	39.780191364736	342.179123573280	974.807577015168	1086.697902439335	95.266581511866	1156.977083102284	899.986867058012	107.364675951776	888.000505197610	1057.101582500980	690.371600821162	1001.415310136267	825.559179530464	711.700150105213	
